<?xml version="1.0" encoding="UTF-8" standalone="no"?>
<!DOCTYPE svg PUBLIC "-//W3C//DTD SVG 1.1//EN" "http://www.w3.org/Graphics/SVG/1.1/DTD/svg11.dtd">
<svg width="100%" height="100%" viewBox="0 0 98 100" version="1.1" xmlns="http://www.w3.org/2000/svg" xmlns:xlink="http://www.w3.org/1999/xlink" xml:space="preserve" xmlns:serif="http://www.serif.com/" style="fill-rule:evenodd;clip-rule:evenodd;stroke-linejoin:round;stroke-miterlimit:2;">
    <g id="Artboard1" transform="matrix(0.933333,0,0,0.869565,4.666667,5.217391)">
        <rect x="-5" y="-6" width="105" height="115" style="fill:none;"/>
        <g transform="matrix(1.071429,0,0,1.15,-5,-6)">
            <path d="M8.19,99L54.56,99C60.16,99 67.41,96.2 70.82,92.8C73.82,89.8 83.82,79.34 90.56,72.29C94.815,68.035 97.125,62.204 96.94,56.19L96.94,8.36C96.94,4.322 93.618,1 89.58,1L43.05,1C36.61,1 30.33,3.78 26.86,7.28C23.86,10.28 14.01,20.68 7.23,27.69C2.964,31.926 0.644,37.751 0.83,43.76L0.83,91.64C0.83,91.643 0.83,91.647 0.83,91.65C0.83,95.682 4.148,99 8.18,99C8.183,99 8.187,99 8.19,99" style="fill:rgb(255,203,49);fill-rule:nonzero;"/>
        </g>
        <g transform="matrix(1.071429,0,0,1.15,-5,-6)">
            <path d="M77.92,59.94C79.486,56.71 80.241,53.147 80.12,49.56C80.12,43.727 78.69,39.257 75.83,36.15C72.97,33.043 68.843,31.493 63.45,31.5C58.057,31.5 53.913,33.04 51.02,36.12C48.127,39.2 46.683,43.663 46.69,49.51C46.69,55.35 48.127,59.847 51,63C53.873,66.153 58.007,67.713 63.4,67.68L64,67.68L65.48,69.49L66.33,70.49L66.33,70.55L66.69,70.99C66.868,71.195 67.062,71.385 67.27,71.56L67.74,71.92C68.855,72.68 70.132,73.166 71.47,73.34L78,73.34L71.51,66.08C74.283,64.823 76.545,62.656 77.92,59.94ZM63.41,61.4C60.826,61.567 58.322,60.442 56.73,58.4C55.243,56.4 54.497,53.447 54.49,49.54C54.49,45.61 55.25,42.66 56.75,40.66C58.351,38.619 60.861,37.495 63.45,37.66C69.357,37.66 72.313,41.617 72.32,49.53C72.327,57.443 69.357,61.4 63.41,61.4Z" style="fill-rule:nonzero;"/>
        </g>
        <g transform="matrix(1.071429,0,0,1.15,-5,-6)">
            <path d="M38,38.2C41.057,38.107 43.566,35.663 43.74,32.61L43.74,32.05L25.24,32.05C22.043,32.11 19.445,34.753 19.44,37.95L19.44,67.16L38,67.16C41.057,67.077 43.57,64.634 43.74,61.58L43.74,61.06L26.88,61.06L26.88,52.75L37.15,52.75C40.189,52.658 42.686,50.235 42.87,47.2L42.87,46.65L26.87,46.65L26.87,38.2L38,38.2Z" style="fill-rule:nonzero;"/>
        </g>
    </g>
</svg>
